<?xml version="1.0" encoding="UTF-8"?>
<svg width="21px" height="21px" viewBox="0 0 21 21" version="1.1" xmlns="http://www.w3.org/2000/svg" xmlns:xlink="http://www.w3.org/1999/xlink">
    <!-- Generator: sketchtool 49.1 (51147) - http://www.bohemiancoding.com/sketch -->
    <title>157A2E1E-718D-412F-ABCF-D22DBD6E7517</title>
    <desc>Created with sketchtool.</desc>
    <defs></defs>
    <g id="Symbols" stroke="none" stroke-width="1" fill="none" fill-rule="evenodd">
        <g id="Button/Feed" transform="translate(-42.000000, -12.000000)" fill="#777777">
            <g id="Group-3" transform="translate(38.000000, 8.000000)">
                <g id="Icon/feed_grey">
                    <path d="M10.4854125,13.0797284 L20.862173,13.0797284 L20.862173,7.8913481 L10.4854125,7.8913481 L10.4854125,13.0797284 Z M9.83689637,21.1865569 C9.83689637,21.0040516 9.97877499,20.8622988 10.1611544,20.8622988 L21.1865569,20.8622988 C21.3689363,20.8622988 21.5108149,21.0040516 21.5108149,21.1865569 C21.5108149,21.3689363 21.3689363,21.5108149 21.1865569,21.5108149 L10.1611544,21.5108149 C9.97877499,21.5108149 9.83689637,21.3689363 9.83689637,21.1865569 L9.83689637,21.1865569 Z M9.83689637,18.5923667 C9.83689637,18.4098615 9.97877499,18.2679829 10.1611544,18.2679829 L21.1865569,18.2679829 C21.3689363,18.2679829 21.5108149,18.4098615 21.5108149,18.5923667 C21.5108149,18.7747461 21.3689363,18.9166248 21.1865569,18.9166248 L10.1611544,18.9166248 C9.97877499,18.9166248 9.83689637,18.7747461 9.83689637,18.5923667 L9.83689637,18.5923667 Z M9.83689637,15.9981766 C9.83689637,15.8156714 9.97877499,15.6737927 10.1611544,15.6737927 L21.1865569,15.6737927 C21.3689363,15.6737927 21.5108149,15.8156714 21.5108149,15.9981766 C21.5108149,16.180556 21.3689363,16.3224346 21.1865569,16.3224346 L10.1611544,16.3224346 C9.97877499,16.3224346 9.83689637,16.180556 9.83689637,15.9981766 L9.83689637,15.9981766 Z M9.83689637,13.7282445 L21.5108149,13.7282445 L21.5108149,7.24270623 L9.83689637,7.24270623 L9.83689637,13.7282445 Z M23.4563632,5.29715796 L7.89122232,5.29715796 L7.89122232,19.8893989 C7.89122232,20.0717783 7.74946948,20.2136569 7.56696428,20.2136569 C7.38458485,20.2136569 7.24270623,20.0717783 7.24270623,19.8893989 L7.24270623,7.8913481 L5.29715796,7.8913481 L5.29715796,20.8723611 C5.29715796,22.2910215 6.46249962,23.4563632 7.89122232,23.4563632 L20.862173,23.4563632 C22.2910215,23.4563632 23.4563632,22.2910215 23.4563632,20.8622988 L23.4563632,5.29715796 Z M24.7535211,4 L24.7535211,20.8622988 C24.7535211,23.0106027 23.0106027,24.7535211 20.862173,24.7535211 L7.89122232,24.7535211 C5.74291844,24.7535211 4,23.0106027 4,20.8723611 L4,6.59419014 L6.59419014,6.59419014 L6.59419014,4 L24.7535211,4 Z" id="Page-1"></path>
                </g>
            </g>
        </g>
    </g>
</svg>