<?xml version="1.0" encoding="UTF-8"?>
<svg width="22px" height="24px" viewBox="0 0 22 24" version="1.1" xmlns="http://www.w3.org/2000/svg" xmlns:xlink="http://www.w3.org/1999/xlink">
    <!-- Generator: sketchtool 49 (51002) - http://www.bohemiancoding.com/sketch -->
    <title>AABA98A4-4D27-4383-89E2-577CD28571EF</title>
    <desc>Created with sketchtool.</desc>
    <defs></defs>
    <g id="Profile" stroke="none" stroke-width="1" fill="none" fill-rule="evenodd">
        <g id="6E_Profile_Following" transform="translate(-483.000000, -515.000000)" fill="#616F8A">
            <g id="Profile-Module_Left" transform="translate(441.000000, 101.000000)">
                <g id="Profile-Box">
                    <g id="About_Box" transform="translate(39.000000, 30.000000)">
                        <g id="Personal-Info" transform="translate(0.000000, 255.000000)">
                            <g id="Icon/News_White" transform="translate(0.000000, 127.000000)">
                                <path d="M10.0086216,12.2865273 L20.4225171,12.2865273 L20.4225171,6.59902727 L10.0086216,6.59902727 L10.0086216,12.2865273 Z M9.35778465,21.1732288 C9.35778465,20.9731667 9.50017101,20.8177773 9.68320311,20.8177773 L20.7480617,20.8177773 C20.9310938,20.8177773 21.0734802,20.9731667 21.0734802,21.1732288 C21.0734802,21.373153 20.9310938,21.5286803 20.7480617,21.5286803 L9.68320311,21.5286803 C9.50017101,21.5286803 9.35778465,21.373153 9.35778465,21.1732288 L9.35778465,21.1732288 Z M9.35778465,18.3294788 C9.35778465,18.1294167 9.50017101,17.9738894 9.68320311,17.9738894 L20.7480617,17.9738894 C20.9310938,17.9738894 21.0734802,18.1294167 21.0734802,18.3294788 C21.0734802,18.529403 20.9310938,18.6849303 20.7480617,18.6849303 L9.68320311,18.6849303 C9.50017101,18.6849303 9.35778465,18.529403 9.35778465,18.3294788 L9.35778465,18.3294788 Z M9.35778465,15.4857288 C9.35778465,15.2856667 9.50017101,15.1301394 9.68320311,15.1301394 L20.7480617,15.1301394 C20.9310938,15.1301394 21.0734802,15.2856667 21.0734802,15.4857288 C21.0734802,15.685653 20.9310938,15.8411803 20.7480617,15.8411803 L9.68320311,15.8411803 C9.50017101,15.8411803 9.35778465,15.685653 9.35778465,15.4857288 L9.35778465,15.4857288 Z M9.35778465,12.9974303 L21.0734802,12.9974303 L21.0734802,5.88798636 L9.35778465,5.88798636 L9.35778465,12.9974303 Z M23.0259909,3.75527727 L7.40514769,3.75527727 L7.40514769,19.7512848 C7.40514769,19.9512091 7.26288757,20.1067364 7.07972924,20.1067364 C6.89669714,20.1067364 6.75431078,19.9512091 6.75431078,19.7512848 L6.75431078,6.59902727 L4.80180005,6.59902727 L4.80180005,20.8288076 C4.80180005,22.3839424 5.97131207,23.6613894 7.40514769,23.6613894 L20.4225171,23.6613894 C21.8564789,23.6613894 23.0259909,22.3839424 23.0259909,20.8177773 L23.0259909,3.75527727 Z M24.327791,2.33333333 L24.327791,20.8177773 C24.327791,23.172747 22.5786352,25.0833333 20.4225171,25.0833333 L7.40514769,25.0833333 C5.24915575,25.0833333 3.5,23.172747 3.5,20.8288076 L3.5,5.17708333 L6.10347387,5.17708333 L6.10347387,2.33333333 L24.327791,2.33333333 Z" id="Page-1"></path>
                            </g>
                        </g>
                    </g>
                </g>
            </g>
        </g>
    </g>
</svg>