<?xml version="1.0" encoding="UTF-8"?>
<svg width="21px" height="16px" viewBox="0 0 21 16" version="1.1" xmlns="http://www.w3.org/2000/svg" xmlns:xlink="http://www.w3.org/1999/xlink">
    <!-- Generator: sketchtool 49 (51002) - http://www.bohemiancoding.com/sketch -->
    <title>6EBEE578-B471-42BA-A606-592756C7DAA8</title>
    <desc>Created with sketchtool.</desc>
    <defs></defs>
    <g id="Profile" stroke="none" stroke-width="1" fill="none" fill-rule="evenodd">
        <g id="6E_Profile_Following" transform="translate(-484.000000, -391.000000)" fill="#616F8A">
            <g id="Profile-Module_Left" transform="translate(441.000000, 101.000000)">
                <g id="Profile-Box">
                    <g id="About_Box" transform="translate(39.000000, 30.000000)">
                        <g id="Personal-Info" transform="translate(0.000000, 255.000000)">
                            <g id="Icon/Title_white" transform="translate(2.000000, 0.000000)">
                                <path d="M21.1263161,12.1906782 L3.35285057,12.1906782 L3.35285057,17.9035057 C3.35285057,18.6077471 3.91835057,19.173023 4.62236782,19.173023 L19.8567989,19.173023 C20.5511782,19.173023 21.1263161,18.6077471 21.1263161,17.9035057 L21.1263161,12.1906782 Z M3.35285057,11.5559195 L21.1263161,11.5559195 L21.1263161,9.01688506 L3.35285057,9.01688506 L3.35285057,11.5559195 Z M21.1263161,7.74736782 C21.1263161,7.04312644 20.5511782,6.47785057 19.8567989,6.47785057 L4.62236782,6.47785057 C3.91835057,6.47785057 3.35285057,7.04312644 3.35285057,7.74736782 L3.35285057,8.38212644 L21.1263161,8.38212644 L21.1263161,7.74736782 Z M22.3958333,7.74736782 L22.3958333,17.9035057 C22.3958333,19.3021264 21.2551954,20.4425402 19.8567989,20.4425402 L4.62236782,20.4425402 C3.22397126,20.4425402 2.08333333,19.3021264 2.08333333,17.9035057 L2.08333333,7.74736782 C2.08333333,6.34897126 3.22397126,5.20833333 4.62236782,5.20833333 L19.8567989,5.20833333 C21.2551954,5.20833333 22.3958333,6.34897126 22.3958333,7.74736782 L22.3958333,7.74736782 Z" id="Fill-1"></path>
                            </g>
                        </g>
                    </g>
                </g>
            </g>
        </g>
    </g>
</svg>