<?xml version="1.0" encoding="UTF-8"?>
<svg width="16px" height="16px" viewBox="0 0 16 16" version="1.1" xmlns="http://www.w3.org/2000/svg" xmlns:xlink="http://www.w3.org/1999/xlink">
    <!-- Generator: Sketch 48.2 (47327) - http://www.bohemiancoding.com/sketch -->
    <title>Icon/discussion_green</title>
    <desc>Created with Sketch.</desc>
    <defs></defs>
    <g id="module/comments" stroke="none" stroke-width="1" fill="none" fill-rule="evenodd" transform="translate(-6.000000, -5.000000)">
        <g id="Icon/discussion_green" transform="translate(6.000000, 5.000000)" fill="#272727">
            <path d="M12.9999198,7.2499679 C12.9999198,7.39067916 12.8905365,7.50006419 12.7498275,7.50006419 L3.24991575,7.50006419 C3.10920675,7.50006419 3.00008024,7.39067916 3.00008024,7.2499679 C3.00008024,7.10925664 3.10920675,6.99987161 3.24991575,6.99987161 L12.7498275,6.99987161 C12.8905365,6.99987161 12.9999198,7.10925664 12.9999198,7.2499679 L12.9999198,7.2499679 Z M12.9999198,4.7500321 C12.9999198,4.89074336 12.8905365,4.99987161 12.7498275,4.99987161 L3.24991575,4.99987161 C3.10920675,4.99987161 3.00008024,4.89074336 3.00008024,4.7500321 C3.00008024,4.60932084 3.10920675,4.49993581 3.24991575,4.49993581 L12.7498275,4.49993581 C12.8905365,4.49993581 12.9999198,4.60932084 12.9999198,4.7500321 L12.9999198,4.7500321 Z M14.9998877,4.99987161 C14.9998877,2.79676467 13.2030234,0.999871614 10.9999519,0.999871614 L5.00004814,0.999871614 C2.79697655,0.999871614 1.00011234,2.79676467 1.00011234,4.99987161 L1.00011234,6.99987161 C1.00011234,9.20297856 2.79697655,10.9998716 5.00004814,10.9998716 L5.99990371,10.9998716 L5.99990371,12 L5.99990371,13.9219412 L9.3748656,11.2188984 L9.64832378,10.9998716 L9.99983952,10.9998716 L10.9999519,10.9998716 C13.2030234,10.9998716 14.9998877,9.20297856 14.9998877,6.99987161 L14.9998877,4.99987161 Z M16,4.99987161 L16,6.99987161 C16,9.74990371 13.7499398,12 10.9999519,12 L9.99983952,12 L5.00004814,16 L5.00004814,12 C2.25006018,12 0,9.74990371 0,6.99987161 L0,4.99987161 C0,2.24983952 2.25006018,0 5.00004814,0 L10.9999519,0 C13.7499398,0 16,2.24983952 16,4.99987161 L16,4.99987161 Z" id="Fill-1"></path>
        </g>
    </g>
</svg>