<?xml version="1.0" encoding="UTF-8"?>
<svg width="16px" height="16px" viewBox="0 0 16 16" version="1.1" xmlns="http://www.w3.org/2000/svg" xmlns:xlink="http://www.w3.org/1999/xlink">
    <!-- Generator: Sketch 48.2 (47327) - http://www.bohemiancoding.com/sketch -->
    <title>Icon/reply_grey</title>
    <desc>Created with Sketch.</desc>
    <defs></defs>
    <g id="module/reply_Link" stroke="none" stroke-width="1" fill="none" fill-rule="evenodd" transform="translate(-7.000000, -6.000000)">
        <g id="Icon/reply_grey" transform="translate(7.000000, 6.000000)" fill="#272727">
            <path d="M16,4.99979138 L16,6.99975928 C16,9.74974724 13.7499398,11.9998074 10.9999519,11.9998074 L9.99983952,11.9998074 L5.00004814,15.9997432 L5.00004814,11.9998074 C2.25006018,11.9998074 0,9.74974724 0,6.99975928 L0,4.99979138 C0,2.24980341 2.25006018,0 5.00004814,0 L10.9999519,0 C13.7499398,0 16,2.24980341 16,4.99979138 Z M2.90910576,7.63635303 C2.90910576,7.83130984 3.07134669,7.99998833 3.27148101,7.99998833 L12.728519,7.99998833 C12.9309627,7.99998833 13.0908942,7.83718326 13.0908942,7.63635303 C13.0908942,7.44139621 12.9286533,7.27271772 12.728519,7.27271772 L3.27148101,7.27271772 C3.06903735,7.27271772 2.90910576,7.43552279 2.90910576,7.63635303 Z M2.90910576,4.72727061 C2.90910576,4.92222742 3.07134669,5.09090591 3.27148101,5.09090591 L12.728519,5.09090591 C12.9309627,5.09090591 13.0908942,4.92810084 13.0908942,4.72727061 C13.0908942,4.53231379 12.9286533,4.3636353 12.728519,4.3636353 L3.27148101,4.3636353 C3.06903735,4.3636353 2.90910576,4.52644037 2.90910576,4.72727061 Z" id="Combined-Shape"></path>
        </g>
    </g>
</svg>