<?xml version="1.0" encoding="UTF-8"?>
<svg width="21px" height="21px" viewBox="0 0 21 21" version="1.1" xmlns="http://www.w3.org/2000/svg" xmlns:xlink="http://www.w3.org/1999/xlink">
    <!-- Generator: Sketch 48.2 (47327) - http://www.bohemiancoding.com/sketch -->
    <title>Icon/feed_green</title>
    <desc>Created with Sketch.</desc>
    <defs></defs>
    <g id="Button/Feed_A" stroke="none" stroke-width="1" fill="none" fill-rule="evenodd" transform="translate(-42.000000, -12.000000)">
        <g id="Group-3" transform="translate(0.000000, 12.000000)" fill="#009688">
            <g id="Group" transform="translate(42.000000, 0.000000)">
                <g id="Icon/feed_green">
                    <path d="M6.48541246,9.07972838 L16.862173,9.07972838 L16.862173,3.8913481 L6.48541246,3.8913481 L6.48541246,9.07972838 Z M5.83689637,17.1865569 C5.83689637,17.0040516 5.97877499,16.8622988 6.16115442,16.8622988 L17.1865569,16.8622988 C17.3689363,16.8622988 17.5108149,17.0040516 17.5108149,17.1865569 C17.5108149,17.3689363 17.3689363,17.5108149 17.1865569,17.5108149 L6.16115442,17.5108149 C5.97877499,17.5108149 5.83689637,17.3689363 5.83689637,17.1865569 L5.83689637,17.1865569 Z M5.83689637,14.5923667 C5.83689637,14.4098615 5.97877499,14.2679829 6.16115442,14.2679829 L17.1865569,14.2679829 C17.3689363,14.2679829 17.5108149,14.4098615 17.5108149,14.5923667 C17.5108149,14.7747461 17.3689363,14.9166248 17.1865569,14.9166248 L6.16115442,14.9166248 C5.97877499,14.9166248 5.83689637,14.7747461 5.83689637,14.5923667 L5.83689637,14.5923667 Z M5.83689637,11.9981766 C5.83689637,11.8156714 5.97877499,11.6737927 6.16115442,11.6737927 L17.1865569,11.6737927 C17.3689363,11.6737927 17.5108149,11.8156714 17.5108149,11.9981766 C17.5108149,12.180556 17.3689363,12.3224346 17.1865569,12.3224346 L6.16115442,12.3224346 C5.97877499,12.3224346 5.83689637,12.180556 5.83689637,11.9981766 L5.83689637,11.9981766 Z M5.83689637,9.72824447 L17.5108149,9.72824447 L17.5108149,3.24270623 L5.83689637,3.24270623 L5.83689637,9.72824447 Z M19.4563632,1.29715796 L3.89122232,1.29715796 L3.89122232,15.8893989 C3.89122232,16.0717783 3.74946948,16.2136569 3.56696428,16.2136569 C3.38458485,16.2136569 3.24270623,16.0717783 3.24270623,15.8893989 L3.24270623,3.8913481 L1.29715796,3.8913481 L1.29715796,16.8723611 C1.29715796,18.2910215 2.46249962,19.4563632 3.89122232,19.4563632 L16.862173,19.4563632 C18.2910215,19.4563632 19.4563632,18.2910215 19.4563632,16.8622988 L19.4563632,1.29715796 Z M20.7535211,0 L20.7535211,16.8622988 C20.7535211,19.0106027 19.0106027,20.7535211 16.862173,20.7535211 L3.89122232,20.7535211 C1.74291844,20.7535211 0,19.0106027 0,16.8723611 L0,2.59419014 L2.59419014,2.59419014 L2.59419014,0 L20.7535211,0 Z" id="Page-1"></path>
                </g>
            </g>
        </g>
    </g>
</svg>