<?xml version="1.0" encoding="UTF-8"?>
<svg width="20px" height="20px" viewBox="0 0 20 20" version="1.1" xmlns="http://www.w3.org/2000/svg" xmlns:xlink="http://www.w3.org/1999/xlink">
    <!-- Generator: sketchtool 49 (51002) - http://www.bohemiancoding.com/sketch -->
    <title>0D40C8CC-99AC-4C7C-BA1A-283D8082B18D</title>
    <desc>Created with sketchtool.</desc>
    <defs></defs>
    <g id="Profile" stroke="none" stroke-width="1" fill="none" fill-rule="evenodd">
        <g id="6H_Provider_Profile-" transform="translate(-484.000000, -720.000000)" fill="#616F8A">
            <g id="Profile-Module_Left" transform="translate(441.000000, 101.000000)">
                <g id="Profile-Box">
                    <g id="Contact-Deails" transform="translate(40.000000, 549.000000)">
                        <g id="PHONE" transform="translate(0.000000, 67.000000)">
                            <g id="Icon/Phone_white">
                                <path d="M8.79846606,22.9150859 C11.7843726,22.9150859 15.1181517,21.2337016 18.1910264,18.1898164 C21.2735641,15.0879523 22.9452853,11.7155207 22.9162959,8.71028791 C22.9162959,8.41073095 22.8969696,8.11117398 22.8583171,7.81161702 C22.8003383,7.36711314 22.6843808,6.93227238 22.5104445,6.46844224 C22.2495401,5.8306758 21.8726781,5.25088813 21.4185111,4.76773174 L20.4521983,3.79175582 C20.0366838,3.38590445 19.5052117,3.14432626 18.9350872,3.125 L18.848119,3.125 C18.2876576,3.125 17.7561856,3.33758881 17.3696605,3.73377706 L14.6253322,6.47810537 C13.8039663,7.29947124 13.8329557,8.70062478 14.6833109,9.56064316 L16.1810958,11.0487649 C15.7269287,11.8604676 15.1084886,12.9234117 14.0165551,14.0153451 C12.9342848,15.0976154 11.8713407,15.7257187 11.0499749,16.1798858 L9.56185316,14.6821009 C9.14633866,14.2665864 8.55688786,14.0250082 7.95777393,14.0250082 C7.38764939,14.0250082 6.86584048,14.2375971 6.47931537,14.6241222 L3.73498705,17.3684505 C3.31947255,17.783965 3.10688374,18.3347633 3.12621,18.9338772 C3.14553625,19.5040017 3.38711445,20.0354738 3.80262895,20.4509883 L4.77860486,21.4269642 C5.25209813,21.8714681 5.8318858,22.2483301 6.47931537,22.5092345 C6.93348238,22.6831708 7.36832313,22.7991284 7.80316389,22.847444 C8.10272085,22.8860965 8.40227782,22.9150859 8.71149791,22.9150859 L8.79846606,22.9150859 L8.79846606,22.9150859 Z M7.95777393,15.2618886 C8.23800464,15.2618886 8.49890909,15.3778461 8.68250852,15.5614456 L10.8277229,17.70666 L11.4558262,17.3684505 C12.3544971,16.875631 13.5913775,16.1895489 14.8958997,14.8946898 C16.200422,13.5805044 16.876841,12.343624 17.3889867,11.4256268 L17.6982068,10.8168498 L15.5626556,8.68129853 C15.1954567,8.31409967 15.1664673,7.68599636 15.4950137,7.35745001 L18.2490051,4.60345856 C18.4036152,4.44884852 18.616204,4.36188037 18.8867716,4.36188037 C19.147676,4.3715435 19.3892542,4.4778379 19.5728536,4.67110046 L20.5295033,5.62775012 C20.8773759,5.99494898 21.1576066,6.43945286 21.3508692,6.92260925 C21.4958161,7.28014499 21.5827842,7.61835446 21.6214367,7.96622707 C21.6600893,8.21746839 21.6794155,8.47837284 21.6794155,8.71995104 C21.7084049,11.3579849 20.1139888,14.4888384 17.3213448,17.3104717 C14.5190378,20.0837894 11.4171737,21.6782055 8.79846606,21.6782055 L8.72116104,21.6782055 C8.46991971,21.6782055 8.21867839,21.6588793 7.96743706,21.6202268 C7.61956446,21.5815742 7.28135498,21.4946061 6.93348238,21.3593223 C6.44066286,21.1563966 5.99615898,20.8761659 5.64828637,20.5379564 L4.67231046,19.5716436 C4.4790479,19.3783811 4.37275349,19.1368029 4.36309036,18.8855616 C4.35342724,18.6343202 4.44039539,18.4120683 4.61433169,18.238132 L7.35866001,15.4938037 C7.50360692,15.3488568 7.71619574,15.2618886 7.95777393,15.2618886 L7.95777393,15.2618886 Z" id="phone"></path>
                            </g>
                        </g>
                    </g>
                </g>
            </g>
        </g>
    </g>
</svg>