<?xml version="1.0" encoding="UTF-8"?>
<svg width="161px" height="589px" viewBox="0 0 161 589" version="1.1" xmlns="http://www.w3.org/2000/svg" xmlns:xlink="http://www.w3.org/1999/xlink">
    <!-- Generator: Sketch 47.1 (45422) - http://www.bohemiancoding.com/sketch -->
    <title>Icon-green</title>
    <desc>Created with Sketch.</desc>
    <defs></defs>
    <g id="Registration-Process" stroke="none" stroke-width="1" fill="none" fill-rule="evenodd">
        <g id="Application_1B" transform="translate(-601.000000, -315.000000)">
            <g id="SignUp" transform="translate(276.000000, 168.000000)">
                <g id="Forms" transform="translate(6.000000, 123.000000)">
                    <g id="Icon-green" transform="translate(316.000000, 15.000000)">
                        <g id="Icon/Company_Green" transform="translate(141.000000, 222.000000)" fill="#009688">
                            <path d="M21.5188732,8.79014085 C21.5188732,8.10535211 20.9594366,7.55549296 20.2842254,7.55549296 L19.0495775,7.55549296 L19.0495775,20.5188732 L20.2842254,20.5188732 C20.9594366,20.5188732 21.5188732,19.9690141 21.5188732,19.2842254 L21.5188732,8.79014085 Z M9.79014085,6.32084507 L15.9630986,6.32084507 L15.9630986,3.85183099 C15.9630986,3.5143662 15.6833803,3.2343662 15.3459155,3.2343662 L10.4076056,3.2343662 C10.0698592,3.2343662 9.79014085,3.5143662 9.79014085,3.85183099 L9.79014085,6.32084507 Z M7.32112676,20.5188732 L18.4323944,20.5188732 L18.4323944,7.55549296 L7.32112676,7.55549296 L7.32112676,20.5188732 Z M5.46901408,20.5188732 L6.70366197,20.5188732 L6.70366197,7.55549296 L5.46901408,7.55549296 C4.78422535,7.55549296 4.23464789,8.10535211 4.23464789,8.79014085 L4.23464789,19.2842254 C4.23464789,19.9690141 4.78422535,20.5188732 5.46901408,20.5188732 L5.46901408,20.5188732 Z M22.7535211,8.79014085 L22.7535211,19.2842254 C22.7535211,20.6442254 21.6442254,21.7535211 20.2842254,21.7535211 L5.46901408,21.7535211 C4.10901408,21.7535211 3,20.6442254 3,19.2842254 L3,8.79014085 C3,7.43014085 4.10901408,6.32084507 5.46901408,6.32084507 L8.55549296,6.32084507 L8.55549296,3.85183099 C8.55549296,2.82929577 9.38507042,2 10.4076056,2 L15.3459155,2 C16.368169,2 17.1977465,2.82929577 17.1977465,3.85183099 L17.1977465,6.32084507 L20.2842254,6.32084507 C21.6442254,6.32084507 22.7535211,7.43014085 22.7535211,8.79014085 L22.7535211,8.79014085 Z" id="Fill-1"></path>
                        </g>
                        <g id="Icon/Phone_white-Copy-2" transform="translate(141.000000, 293.000000)" fill="#009688">
                            <path d="M8.44652742,21.9984825 C11.3129977,21.9984825 14.5134256,20.3843536 17.4633853,17.4622237 C20.4226216,14.4844342 22.0274739,11.2468999 21.999644,8.3618764 C21.999644,8.07430171 21.9810908,7.78672702 21.9439844,7.49915234 C21.8883248,7.07242861 21.7770056,6.65498149 21.6100267,6.20970455 C21.3595585,5.59744877 20.997771,5.04085261 20.5617706,4.57702247 L19.6341103,3.64008559 C19.2352164,3.25046827 18.7250033,3.01855321 18.1776837,3 L18.0941943,3 C17.5561513,3 17.0459382,3.20408526 16.6748741,3.58442597 L14.0403189,6.21898116 C13.2518076,7.00749239 13.2796375,8.35259979 14.0959785,9.17821744 L15.5338519,10.6068143 C15.0978516,11.3860489 14.504149,12.4064752 13.4558929,13.4547313 C12.4169134,14.4937108 11.3964871,15.09669 10.6079759,15.5326903 L9.17937903,14.0948169 C8.78048512,13.695923 8.21461235,13.4640079 7.63946298,13.4640079 C7.09214341,13.4640079 6.59120686,13.6680932 6.22014275,14.0391573 L3.58558757,16.6737125 C3.18669365,17.0726064 2.98260839,17.6013727 3.0011616,18.1765221 C3.0197148,18.7238417 3.25162987,19.2340548 3.65052379,19.6329487 L4.58746067,20.5698856 C5.0420142,20.9966094 5.59861037,21.3583969 6.22014275,21.6088651 C6.65614308,21.775844 7.07359021,21.8871632 7.49103733,21.9335462 C7.77861202,21.9706526 8.0661867,21.9984825 8.36303799,21.9984825 L8.44652742,21.9984825 L8.44652742,21.9984825 Z M7.63946298,14.6514131 C7.90848446,14.6514131 8.15895273,14.7627323 8.33520818,14.9389878 L10.394614,16.9983936 L10.9975932,16.6737125 C11.8603172,16.2006057 13.0477224,15.5419669 14.3000638,14.2989022 C15.5524051,13.0372842 16.2017673,11.849879 16.6934273,10.9686018 L16.9902786,10.3841758 L14.9401493,8.33404659 C14.5876384,7.98153568 14.5598086,7.3785565 14.8752131,7.06315201 L17.5190449,4.41932022 C17.6674706,4.27089458 17.8715558,4.18740515 18.1313007,4.18740515 C18.381769,4.19668176 18.613684,4.29872439 18.7899395,4.48425644 L19.7083232,5.40264011 C20.0422809,5.75515102 20.3113023,6.18187475 20.4968344,6.64570488 C20.6359834,6.98893919 20.7194729,7.31362028 20.7565793,7.64757798 C20.7936857,7.88876965 20.8122389,8.13923793 20.8122389,8.371153 C20.8400687,10.9036656 19.3094292,13.9092848 16.6284911,16.6180529 C13.9382763,19.2804378 10.9604868,20.8110773 8.44652742,20.8110773 L8.37231459,20.8110773 C8.13112292,20.8110773 7.88993125,20.7925241 7.64873958,20.7554177 C7.31478188,20.7183113 6.99010078,20.6348218 6.65614308,20.5049494 C6.18303634,20.3101408 5.75631262,20.0411193 5.42235492,19.7164382 L4.48541804,18.7887779 C4.29988598,18.6032458 4.19784335,18.3713308 4.18856675,18.1301391 C4.17929015,17.8889474 4.26277957,17.6755856 4.42975842,17.5086067 L7.06431361,14.8740515 C7.20346265,14.7349025 7.40754791,14.6514131 7.63946298,14.6514131 L7.63946298,14.6514131 Z" id="phone"></path>
                        </g>
                        <g id="Icon/chev_down_Green" transform="translate(141.000000, 364.000000)" stroke-width="1.4" stroke="#009688">
                            <polyline id="shape-copy" points="21.3658082 8 12.6829418 16.7795763 4 8"></polyline>
                        </g>
                        <g id="Icon/chev_down_Green" transform="translate(0.000000, 364.000000)" stroke-width="1.4" stroke="#009688">
                            <polyline id="shape-copy" points="21.3658082 8 12.6829418 16.7795763 4 8"></polyline>
                        </g>
                        <g id="Icon/Emai_lGreen" transform="translate(141.000000, 432.000000)" stroke="#009688">
                            <rect id="shape" stroke-width="1.3" x="3.15" y="4.65" width="18.7" height="15.7" rx="2"></rect>
                            <polyline id="shape" stroke-width="0.75" points="21.3658082 4.5 12.6829418 13.2795763 4 4.5"></polyline>
                        </g>
                        <g id="Icon/Industry_White" transform="translate(141.000000, 507.000000)" fill="#009688">
                            <path d="M13.5624242,19.9374545 L19.9374545,19.9374545 L19.9374545,15.6875152 L13.5624242,15.6875152 L13.5624242,19.9374545 Z M13.5624242,15.1563636 L19.9374545,15.1563636 L19.9374545,13.0312727 L13.5624242,13.0312727 L13.5624242,15.1563636 Z M13.5624242,12.5001212 L19.9374545,12.5001212 L19.9374545,10.3750303 L13.5624242,10.3750303 L13.5624242,12.5001212 Z M13.5624242,9.84387879 L19.9374545,9.84387879 L19.9374545,7.71878788 L13.5624242,7.71878788 L13.5624242,9.84387879 Z M12.5001212,5.06254545 L12.5001212,6.65624242 C12.8901818,6.65624242 13.2305455,6.872 13.4130909,7.18739394 L19.9374545,7.18739394 L19.9374545,5.06254545 L12.5001212,5.06254545 Z M10.3750303,15.1563636 L12.5001212,15.1563636 L12.5001212,13.0312727 L10.3750303,13.0312727 L10.3750303,15.1563636 Z M10.3750303,12.5001212 L12.5001212,12.5001212 L12.5001212,10.3750303 L10.3750303,10.3750303 L10.3750303,12.5001212 Z M10.3750303,9.84363636 L12.5001212,9.84363636 L12.5001212,7.71854545 L10.3750303,7.71854545 L10.3750303,9.84363636 Z M7.71878788,15.1563636 L9.84387879,15.1563636 L9.84387879,13.0312727 L7.71878788,13.0312727 L7.71878788,15.1563636 Z M7.71878788,12.4998788 L9.84387879,12.4998788 L9.84387879,10.3747879 L7.71878788,10.3747879 L7.71878788,12.4998788 Z M7.71878788,9.84363636 L9.84387879,9.84363636 L9.84387879,7.71854545 L7.71878788,7.71854545 L7.71878788,9.84363636 Z M5.06254545,19.9374545 L12.5001212,19.9374545 L12.5001212,15.6875152 L5.06254545,15.6875152 L5.06254545,19.9374545 Z M5.06254545,15.1563636 L7.18763636,15.1563636 L7.18763636,13.0312727 L5.06254545,13.0312727 L5.06254545,15.1563636 Z M5.06230303,12.5001212 L7.18739394,12.5001212 L7.18739394,10.3750303 L5.06230303,10.3750303 L5.06230303,12.5001212 Z M5.06254545,9.84363636 L7.18763636,9.84363636 L7.18763636,7.71854545 L5.06254545,7.71854545 L5.06254545,9.84363636 Z M21,5.06254545 L21,21 L4,21 L4,7.71878788 C4,7.12945455 4.47321212,6.65624242 5.06254545,6.65624242 L6.12509091,6.65624242 L6.12509091,4.53115152 C6.12509091,4.24072727 6.36581818,4 6.65624242,4 C6.94666667,4 7.18739394,4.24072727 7.18739394,4.53115152 L7.18739394,6.65624242 L8.24993939,6.65624242 L8.24993939,4.53115152 C8.24993939,4.24072727 8.49066667,4 8.78133333,4 C9.07175758,4 9.31248485,4.24072727 9.31248485,4.53115152 L9.31248485,6.65624242 L11.4375758,6.65624242 L11.4375758,5.06254545 C11.4375758,4.47321212 11.9105455,4 12.5001212,4 L19.9374545,4 C20.5267879,4 21,4.47321212 21,5.06254545 L21,5.06254545 Z" id="Page-1"></path>
                        </g>
                        <g id="Icon/chev_down_Green" transform="translate(141.000000, 580.000000)" stroke-width="1.4" stroke="#009688">
                            <polyline id="shape-copy" points="21.3658082 8 12.6829418 16.7795763 4 8"></polyline>
                        </g>
                        <g id="Icon/FirstName_Green" transform="translate(141.000000, 0.000000)" stroke="#009688" stroke-width="1.4" stroke-linecap="square">
                            <path d="M3,15.7 L22,15.7" id="line"></path>
                            <path d="M3,9.7 L16,9.7" id="line"></path>
                        </g>
                        <g id="Icon/LastName_Green" transform="translate(141.000000, 79.000000)" stroke="#009688" stroke-width="1.4" stroke-linecap="square">
                            <path d="M3,9.7 L22,9.7" id="line" transform="translate(12.500000, 9.700000) scale(1, -1) translate(-12.500000, -9.700000) "></path>
                            <path d="M3,15.7 L16,15.7" id="line" transform="translate(9.500000, 15.700000) scale(1, -1) translate(-9.500000, -15.700000) "></path>
                        </g>
                        <g id="Icon/Company_Green" transform="translate(141.000000, 151.000000)" fill="#009688">
                            <path d="M21.5188732,8.79014085 C21.5188732,8.10535211 20.9594366,7.55549296 20.2842254,7.55549296 L19.0495775,7.55549296 L19.0495775,20.5188732 L20.2842254,20.5188732 C20.9594366,20.5188732 21.5188732,19.9690141 21.5188732,19.2842254 L21.5188732,8.79014085 Z M9.79014085,6.32084507 L15.9630986,6.32084507 L15.9630986,3.85183099 C15.9630986,3.5143662 15.6833803,3.2343662 15.3459155,3.2343662 L10.4076056,3.2343662 C10.0698592,3.2343662 9.79014085,3.5143662 9.79014085,3.85183099 L9.79014085,6.32084507 Z M7.32112676,20.5188732 L18.4323944,20.5188732 L18.4323944,7.55549296 L7.32112676,7.55549296 L7.32112676,20.5188732 Z M5.46901408,20.5188732 L6.70366197,20.5188732 L6.70366197,7.55549296 L5.46901408,7.55549296 C4.78422535,7.55549296 4.23464789,8.10535211 4.23464789,8.79014085 L4.23464789,19.2842254 C4.23464789,19.9690141 4.78422535,20.5188732 5.46901408,20.5188732 L5.46901408,20.5188732 Z M22.7535211,8.79014085 L22.7535211,19.2842254 C22.7535211,20.6442254 21.6442254,21.7535211 20.2842254,21.7535211 L5.46901408,21.7535211 C4.10901408,21.7535211 3,20.6442254 3,19.2842254 L3,8.79014085 C3,7.43014085 4.10901408,6.32084507 5.46901408,6.32084507 L8.55549296,6.32084507 L8.55549296,3.85183099 C8.55549296,2.82929577 9.38507042,2 10.4076056,2 L15.3459155,2 C16.368169,2 17.1977465,2.82929577 17.1977465,3.85183099 L17.1977465,6.32084507 L20.2842254,6.32084507 C21.6442254,6.32084507 22.7535211,7.43014085 22.7535211,8.79014085 L22.7535211,8.79014085 Z" id="Fill-1"></path>
                        </g>
                    </g>
                </g>
            </g>
        </g>
    </g>
</svg>