<?xml version="1.0" encoding="UTF-8"?>
<svg width="23px" height="22px" viewBox="0 0 23 22" version="1.1" xmlns="http://www.w3.org/2000/svg" xmlns:xlink="http://www.w3.org/1999/xlink">
    <!-- Generator: sketchtool 49 (51002) - http://www.bohemiancoding.com/sketch -->
    <title>DB8ED30D-0502-4422-8128-A63A4722655B</title>
    <desc>Created with sketchtool.</desc>
    <defs></defs>
    <g id="Profile" stroke="none" stroke-width="1" fill="none" fill-rule="evenodd">
        <g id="6A_My_Profile_01" transform="translate(-483.000000, -472.000000)" fill="#616F8A">
            <g id="Profile-Module_Left" transform="translate(441.000000, 101.000000)">
                <g id="Profile-Box">
                    <g id="About_Box" transform="translate(39.000000, 30.000000)">
                        <g id="Personal-Info" transform="translate(0.000000, 255.000000)">
                            <g id="Icon/Network_White" transform="translate(0.000000, 83.000000)">
                                <path d="M17.3543001,8.83189434 C17.3543001,9.86753755 18.2848924,10.7188343 19.4324806,10.7188343 C20.5793574,10.7188343 21.5106612,9.86753755 21.5106612,8.83189434 L21.5106612,6.69927141 C21.5106612,5.66362819 20.5793574,4.81233149 19.4324806,4.81233149 C18.2848924,4.81233149 17.3543001,5.66362819 17.3543001,6.69927141 L17.3543001,8.83189434 Z M15.9687278,8.83189434 L15.9687278,6.69927141 C15.9687278,4.93534151 17.5271853,3.5 19.4324806,3.5 C21.3370645,3.5 22.8958778,4.93534151 22.8958778,6.69927141 L22.8958778,8.83189434 C22.8958778,10.5954872 21.3370645,12.0311657 19.4324806,12.0311657 C17.5271853,12.0311657 15.9687278,10.5954872 15.9687278,8.83189434 L15.9687278,8.83189434 Z M24.2593948,18.5938343 C24.0431103,16.3890904 21.9649297,14.6561657 19.4324806,14.6561657 C17.4190431,14.6561657 15.6005462,15.7945982 14.886594,17.4864071 L14.8755664,17.5170754 C15.4600324,17.8143215 16.0010993,18.1732411 16.488095,18.5938343 L24.2593948,18.5938343 Z M9.04157773,12.1130601 C9.04157773,13.1490403 9.9725258,14 11.1197583,14 C12.2669908,14 13.1979389,13.1490403 13.1979389,12.1130601 L13.1979389,9.98043715 C13.1979389,8.94479394 12.2669908,8.09383425 11.1197583,8.09383425 C9.9725258,8.09383425 9.04157773,8.94479394 9.04157773,9.98043715 L9.04157773,12.1130601 Z M7.65636117,12.1130601 L7.65636117,9.98043715 C7.65636117,8.21684427 9.21481874,6.78116575 11.1197583,6.78116575 C13.0246979,6.78116575 14.5831555,8.21684427 14.5831555,9.98043715 L14.5831555,12.1130601 C14.5831555,13.87699 13.0246979,15.3123315 11.1197583,15.3123315 C9.21481874,15.3123315 7.65636117,13.87699 7.65636117,12.1130601 L7.65636117,12.1130601 Z M17.3543001,23.1876685 C17.2351302,20.2755328 14.4860409,17.9376685 11.1197583,17.9376685 C7.75383146,17.9376685 5.00438646,20.2755328 4.8855723,23.1876685 L17.3543001,23.1876685 Z M25.6666667,18.9733117 C25.6666667,19.4859096 25.2013705,19.9061657 24.6272206,19.9061657 L17.6356833,19.9061657 C18.3282916,20.9215881 18.7398724,22.1109096 18.7398724,23.372352 C18.7398724,23.9975125 18.1657225,24.5 17.4731142,24.5 L4.77743007,24.5 C4.07379413,24.5 3.5,23.9975125 3.5,23.372352 C3.5,19.6601457 6.93102563,16.625 11.1197583,16.625 C11.9856076,16.625 12.8190854,16.7584574 13.598492,17.0044775 C14.4860409,14.8715175 16.7694783,13.3438343 19.4324806,13.3438343 C22.8631505,13.3438343 25.6666667,15.8764925 25.6666667,18.9733117 L25.6666667,18.9733117 Z" id="Fill-1"></path>
                            </g>
                        </g>
                    </g>
                </g>
            </g>
        </g>
    </g>
</svg>