<?xml version="1.0" encoding="UTF-8"?>
<svg width="26px" height="26px" viewBox="0 0 26 26" version="1.1" xmlns="http://www.w3.org/2000/svg" xmlns:xlink="http://www.w3.org/1999/xlink">
    <!-- Generator: Sketch 47.1 (45422) - http://www.bohemiancoding.com/sketch -->
    <title>icon/social_twitter</title>
    <desc>Created with Sketch.</desc>
    <defs></defs>
    <g id="Symbols" stroke="none" stroke-width="1" fill="none" fill-rule="evenodd">
        <g id="Object/Header" transform="translate(-1058.000000, -30.000000)" fill="#FFFFFF">
            <g id="icon/social_twitter" transform="translate(1058.000000, 30.000000)">
                <path d="M20.1472848,9.61356886 C20.1370534,9.62233859 20.1260912,9.62891589 20.1187831,9.63914724 C19.7818794,10.0915191 19.3974729,10.4963883 18.9531399,10.8449851 C18.918061,10.8720251 18.8954058,10.9304899 18.891021,10.976531 C18.8764048,11.1219624 18.8698275,11.2695862 18.8654426,11.4157483 C18.8457107,12.0259754 18.7631291,12.6267018 18.6030815,13.2157354 C18.2296372,14.5874672 17.5682534,15.7962283 16.5611961,16.8069397 C15.6506058,17.7204532 14.5748523,18.3591818 13.3302815,18.7041245 C12.7310166,18.8707494 12.1229821,18.9847559 11.4952156,18.9664856 C11.2708566,18.9591775 11.0464977,18.9591775 10.8221388,18.9664856 C10.3675745,18.9811018 9.92031827,18.9255602 9.4759853,18.8334781 C8.631168,18.6595451 7.84920043,18.327757 7.10450422,17.8995018 C7.0562707,17.8710002 7.01315286,17.8322672 6.96784259,17.7986499 C6.97149665,17.7854954 6.97441989,17.7723408 6.97734314,17.7591862 C7.65626638,17.759917 8.33518962,17.7796489 8.99803503,17.5867148 C9.66088043,17.3937808 10.2732999,17.1080337 10.8236004,16.6827018 C10.7000934,16.6468921 10.578048,16.6286218 10.458195,16.600851 C9.51983395,16.384531 8.85333449,15.8378845 8.46819719,14.9528726 C8.441888,14.8929462 8.43165665,14.8257116 8.41119395,14.7555537 C8.604128,14.7555537 8.77440692,14.7599386 8.94468584,14.7540921 C9.11569557,14.7482456 9.28816692,14.7453224 9.45698422,14.6970889 C8.86137341,14.5129245 8.36442205,14.1847905 8.00047827,13.6863775 C7.63945773,13.1916186 7.41071395,12.6427797 7.46698638,11.9748186 C7.82435286,12.1443667 8.16710314,12.2634889 8.54200908,12.2781051 C8.01436368,11.8374262 7.65480476,11.3002802 7.53129773,10.6206262 C7.41071395,9.95339589 7.48671827,9.3183213 7.83385341,8.70078616 C7.93251286,8.79506076 8.01217124,8.86741103 8.08744476,8.94268454 C8.52739286,9.38190184 8.96953341,9.81673427 9.48548584,10.1697159 C10.5232372,10.8771408 11.6669561,11.3061267 12.9122577,11.4676359 C13.0723053,11.4880986 13.2345453,11.4954067 13.3858231,11.5085613 C13.3858231,11.2681245 13.3865539,11.0496121 13.3858231,10.8303689 C13.3850923,10.0622867 13.7095723,9.43963589 14.2547572,8.92222184 C14.6523183,8.54366184 15.1353842,8.32441859 15.6703377,8.21625859 L16.5246556,8.21625859 C16.5831204,8.22795157 16.6423161,8.23745211 16.700781,8.25133751 C17.1721539,8.36022832 17.5945626,8.56558616 17.9475442,8.89810508 C18.0652048,9.00991914 18.1894426,9.03768995 18.3370664,8.99164886 C18.5022296,8.94122292 18.6703161,8.89883589 18.8296329,8.83671697 C19.1066102,8.72709535 19.3770102,8.60358832 19.6503334,8.48812022 C19.7036826,8.46619589 19.759955,8.45157968 19.814035,8.43330941 L19.8330361,8.46108022 C19.6459485,9.01722724 19.2820048,9.44913643 18.8427875,9.83427373 C18.9085604,9.84085103 18.9641021,9.83865859 19.0167204,9.82404238 C19.323661,9.73926832 19.6298707,9.65084022 19.9368112,9.56460454 C20.0062383,9.54414184 20.0771269,9.528064 20.1472848,9.50979373 L20.1472848,9.61356886 Z M12.8420999,0.210956973 C5.74958097,0.210956973 0.000292324324,5.96024562 0.000292324324,13.0527645 C0.000292324324,20.1452835 5.74958097,25.8945721 12.8420999,25.8945721 C19.9346188,25.8945721 25.6839075,20.1452835 25.6839075,13.0527645 C25.6839075,5.96024562 19.9346188,0.210956973 12.8420999,0.210956973 L12.8420999,0.210956973 Z" id="Fill-1"></path>
            </g>
        </g>
    </g>
</svg>