<?xml version="1.0" encoding="UTF-8"?>
<svg width="14px" height="13px" viewBox="0 0 14 13" version="1.1" xmlns="http://www.w3.org/2000/svg" xmlns:xlink="http://www.w3.org/1999/xlink">
    <!-- Generator: sketchtool 49 (51002) - http://www.bohemiancoding.com/sketch -->
    <title>E5CE3318-4FE8-4631-88EC-11598C3091B8</title>
    <desc>Created with sketchtool.</desc>
    <defs></defs>
    <g id="Symbols" stroke="none" stroke-width="1" fill="none" fill-rule="evenodd">
        <g id="Icon/people_green_16" transform="translate(-1.000000, -1.000000)">
            <g id="Icon/people_green_small">
                <rect id="Rectangle" x="0" y="0" width="16" height="16"></rect>
                <path d="M9.75008425,4.3006965 C9.75008425,4.94180896 10.3378268,5.46880216 11.0626194,5.46880216 C11.7869626,5.46880216 12.3751545,4.94180896 12.3751545,4.3006965 L12.3751545,2.98050135 C12.3751545,2.33938888 11.7869626,1.81239569 11.0626194,1.81239569 C10.3378268,1.81239569 9.75008425,2.33938888 9.75008425,2.98050135 L9.75008425,4.3006965 Z M8.87498596,4.3006965 L8.87498596,2.98050135 C8.87498596,1.88854474 9.85927495,1 11.0626194,1 C12.2655144,1 13.2500281,1.88854474 13.2500281,2.98050135 L13.2500281,4.3006965 C13.2500281,5.39244447 12.2655144,6.28119784 11.0626194,6.28119784 C9.85927495,6.28119784 8.87498596,5.39244447 8.87498596,4.3006965 L8.87498596,4.3006965 Z M14.1111967,10.3438022 C13.974596,8.97896071 12.6620609,7.90619784 11.0626194,7.90619784 C9.7909746,7.90619784 8.64245021,8.61094171 8.19153307,9.65825202 L8.18456823,9.67723713 C8.55370468,9.86124663 8.89543113,10.083435 9.2030074,10.3438022 L14.1111967,10.3438022 Z M4.49994383,6.33189434 C4.49994383,6.97321543 5.08791103,7.5 5.81247894,7.5 C6.53704684,7.5 7.12501404,6.97321543 7.12501404,6.33189434 L7.12501404,5.01169919 C7.12501404,4.37058672 6.53704684,3.84380216 5.81247894,3.84380216 C5.08791103,3.84380216 4.49994383,4.37058672 4.49994383,5.01169919 L4.49994383,6.33189434 Z M3.62507021,6.33189434 L3.62507021,5.01169919 C3.62507021,3.91995121 4.6093592,3.03119784 5.81247894,3.03119784 C7.01559867,3.03119784 7.99988766,3.91995121 7.99988766,5.01169919 L7.99988766,6.33189434 C7.99988766,7.42385094 7.01559867,8.31239569 5.81247894,8.31239569 C4.6093592,8.31239569 3.62507021,7.42385094 3.62507021,6.33189434 L3.62507021,6.33189434 Z M9.75008425,13.1876043 C9.67481906,11.3848536 7.93855215,9.93760431 5.81247894,9.93760431 C3.6866304,9.93760431 1.95013882,11.3848536 1.87509829,13.1876043 L9.75008425,13.1876043 Z M15,10.5787168 C15,10.8960393 14.7061287,11.1561978 14.3435078,11.1561978 L9.92779998,11.1561978 C10.3652368,11.7847927 10.6251825,12.5210393 10.6251825,13.3019322 C10.6251825,13.6889363 10.2625616,14 9.82512477,14 L1.80679794,14 C1.36239629,14 1,13.6889363 1,13.3019322 C1,11.0038997 3.16696355,9.125 5.81247894,9.125 C6.35933112,9.125 6.88573813,9.20761651 7.37799496,9.35991462 C7.93855215,8.03951085 9.38072312,7.09380216 11.0626194,7.09380216 C13.2293582,7.09380216 15,8.66163821 15,10.5787168 L15,10.5787168 Z" id="Fill-1" fill="#0A9B8E"></path>
            </g>
        </g>
    </g>
</svg>