<?xml version="1.0" encoding="UTF-8"?>
<svg width="25px" height="25px" viewBox="0 0 25 25" version="1.1" xmlns="http://www.w3.org/2000/svg" xmlns:xlink="http://www.w3.org/1999/xlink">
    <!-- Generator: Sketch 48.2 (47327) - http://www.bohemiancoding.com/sketch -->
    <title>Icon/Industry_white</title>
    <desc>Created with Sketch.</desc>
    <defs></defs>
    <g id="Symbols" stroke="none" stroke-width="1" fill="none" fill-rule="evenodd">
        <g id="Icon/Industry_white" fill="#616F8A">
            <path d="M13.5624242,19.9374545 L19.9374545,19.9374545 L19.9374545,15.6875152 L13.5624242,15.6875152 L13.5624242,19.9374545 Z M13.5624242,15.1563636 L19.9374545,15.1563636 L19.9374545,13.0312727 L13.5624242,13.0312727 L13.5624242,15.1563636 Z M13.5624242,12.5001212 L19.9374545,12.5001212 L19.9374545,10.3750303 L13.5624242,10.3750303 L13.5624242,12.5001212 Z M13.5624242,9.84387879 L19.9374545,9.84387879 L19.9374545,7.71878788 L13.5624242,7.71878788 L13.5624242,9.84387879 Z M12.5001212,5.06254545 L12.5001212,6.65624242 C12.8901818,6.65624242 13.2305455,6.872 13.4130909,7.18739394 L19.9374545,7.18739394 L19.9374545,5.06254545 L12.5001212,5.06254545 Z M10.3750303,15.1563636 L12.5001212,15.1563636 L12.5001212,13.0312727 L10.3750303,13.0312727 L10.3750303,15.1563636 Z M10.3750303,12.5001212 L12.5001212,12.5001212 L12.5001212,10.3750303 L10.3750303,10.3750303 L10.3750303,12.5001212 Z M10.3750303,9.84363636 L12.5001212,9.84363636 L12.5001212,7.71854545 L10.3750303,7.71854545 L10.3750303,9.84363636 Z M7.71878788,15.1563636 L9.84387879,15.1563636 L9.84387879,13.0312727 L7.71878788,13.0312727 L7.71878788,15.1563636 Z M7.71878788,12.4998788 L9.84387879,12.4998788 L9.84387879,10.3747879 L7.71878788,10.3747879 L7.71878788,12.4998788 Z M7.71878788,9.84363636 L9.84387879,9.84363636 L9.84387879,7.71854545 L7.71878788,7.71854545 L7.71878788,9.84363636 Z M5.06254545,19.9374545 L12.5001212,19.9374545 L12.5001212,15.6875152 L5.06254545,15.6875152 L5.06254545,19.9374545 Z M5.06254545,15.1563636 L7.18763636,15.1563636 L7.18763636,13.0312727 L5.06254545,13.0312727 L5.06254545,15.1563636 Z M5.06230303,12.5001212 L7.18739394,12.5001212 L7.18739394,10.3750303 L5.06230303,10.3750303 L5.06230303,12.5001212 Z M5.06254545,9.84363636 L7.18763636,9.84363636 L7.18763636,7.71854545 L5.06254545,7.71854545 L5.06254545,9.84363636 Z M21,5.06254545 L21,21 L4,21 L4,7.71878788 C4,7.12945455 4.47321212,6.65624242 5.06254545,6.65624242 L6.12509091,6.65624242 L6.12509091,4.53115152 C6.12509091,4.24072727 6.36581818,4 6.65624242,4 C6.94666667,4 7.18739394,4.24072727 7.18739394,4.53115152 L7.18739394,6.65624242 L8.24993939,6.65624242 L8.24993939,4.53115152 C8.24993939,4.24072727 8.49066667,4 8.78133333,4 C9.07175758,4 9.31248485,4.24072727 9.31248485,4.53115152 L9.31248485,6.65624242 L11.4375758,6.65624242 L11.4375758,5.06254545 C11.4375758,4.47321212 11.9105455,4 12.5001212,4 L19.9374545,4 C20.5267879,4 21,4.47321212 21,5.06254545 L21,5.06254545 Z" id="Page-1"></path>
        </g>
    </g>
</svg>