<?xml version="1.0" encoding="UTF-8"?>
<svg width="28px" height="28px" viewBox="0 0 28 28" version="1.1" xmlns="http://www.w3.org/2000/svg" xmlns:xlink="http://www.w3.org/1999/xlink">
    <!-- Generator: Sketch 48.2 (47327) - http://www.bohemiancoding.com/sketch -->
    <title>Icon/Network_White</title>
    <desc>Created with Sketch.</desc>
    <defs></defs>
    <g id="Symbols" stroke="none" stroke-width="1" fill="none" fill-rule="evenodd">
        <g id="Icon/Network_White" fill="#616F8A">
            <path d="M16.1253531,9.33189434 C16.1253531,10.3675376 17.006981,11.2188343 18.0941873,11.2188343 C19.1807196,11.2188343 20.0630216,10.3675376 20.0630216,9.33189434 L20.0630216,7.19927141 C20.0630216,6.16362819 19.1807196,5.31233149 18.0941873,5.31233149 C17.006981,5.31233149 16.1253531,6.16362819 16.1253531,7.19927141 L16.1253531,9.33189434 Z M14.8126846,9.33189434 L14.8126846,7.19927141 C14.8126846,5.43534151 16.2891417,4 18.0941873,4 C19.8985589,4 21.3753531,5.43534151 21.3753531,7.19927141 L21.3753531,9.33189434 C21.3753531,11.0954872 19.8985589,12.5311657 18.0941873,12.5311657 C16.2891417,12.5311657 14.8126846,11.0954872 14.8126846,9.33189434 L14.8126846,9.33189434 Z M22.6671267,19.0938343 C22.4622224,16.8890904 20.4933881,15.1561657 18.0941873,15.1561657 C16.1866896,15.1561657 14.4638753,16.2945982 13.7874888,17.9864071 L13.7770413,18.0170754 C14.3307549,18.3143215 14.8433528,18.6732411 15.3047246,19.0938343 L22.6671267,19.0938343 Z M8.25001605,12.6130601 C8.25001605,13.6490403 9.131981,14.5 10.2188503,14.5 C11.3057196,14.5 12.1876846,13.6490403 12.1876846,12.6130601 L12.1876846,10.4804372 C12.1876846,9.44479394 11.3057196,8.59383425 10.2188503,8.59383425 C9.131981,8.59383425 8.25001605,9.44479394 8.25001605,10.4804372 L8.25001605,12.6130601 Z M6.93768456,12.6130601 L6.93768456,10.4804372 C6.93768456,8.71684427 8.41414174,7.28116575 10.2188503,7.28116575 C12.0235589,7.28116575 13.500016,8.71684427 13.500016,10.4804372 L13.500016,12.6130601 C13.500016,14.37699 12.0235589,15.8123315 10.2188503,15.8123315 C8.41414174,15.8123315 6.93768456,14.37699 6.93768456,12.6130601 L6.93768456,12.6130601 Z M16.1253531,23.6876685 C16.0124535,20.7755328 13.4080113,18.4376685 10.2188503,18.4376685 C7.03002632,18.4376685 4.42524714,20.7755328 4.31268456,23.6876685 L16.1253531,23.6876685 Z M24.0003531,19.4733117 C24.0003531,19.9859096 23.5595391,20.4061657 23.0155989,20.4061657 L16.3919309,20.4061657 C17.0480967,21.4215881 17.4380216,22.6109096 17.4380216,23.872352 C17.4380216,24.4975125 16.8940814,25 16.2379157,25 L4.21023238,25 C3.54361921,25 3.00001605,24.4975125 3.00001605,23.872352 C3.00001605,20.1601457 6.25051354,17.125 10.2188503,17.125 C11.0391417,17.125 11.8287649,17.2584574 12.567162,17.5044775 C13.4080113,15.3715175 15.5713025,13.8438343 18.0941873,13.8438343 C21.3443478,13.8438343 24.0003531,16.3764925 24.0003531,19.4733117 L24.0003531,19.4733117 Z" id="Fill-1"></path>
        </g>
    </g>
</svg>