<?xml version="1.0" encoding="UTF-8"?>
<svg width="13px" height="13px" viewBox="0 0 13 13" version="1.1" xmlns="http://www.w3.org/2000/svg" xmlns:xlink="http://www.w3.org/1999/xlink">
    <!-- Generator: Sketch 48.2 (47327) - http://www.bohemiancoding.com/sketch -->
    <title>Icon/people_green_small</title>
    <desc>Created with Sketch.</desc>
    <defs></defs>
    <g id="module/connections" stroke="none" stroke-width="1" fill="none" fill-rule="evenodd" transform="translate(-5.000000, -1.000000)">
        <g id="Icon/Network_green" transform="translate(4.000000, 0.000000)" fill="#0A9B8E">
            <path d="M8.97327984,4.59948233 C8.97327984,5.18070092 9.46806273,5.65846146 10.0782193,5.65846146 C10.6879976,5.65846146 11.1831588,5.18070092 11.1831588,4.59948233 L11.1831588,3.4026222 C11.1831588,2.82140361 10.6879976,2.34364307 10.0782193,2.34364307 C9.46806273,2.34364307 8.97327984,2.82140361 8.97327984,3.4026222 L8.97327984,4.59948233 Z M8.23659049,4.59948233 L8.23659049,3.4026222 C8.23659049,2.41267815 9.06520051,1.60714286 10.0782193,1.60714286 C11.0908598,1.60714286 11.919659,2.41267815 11.919659,3.4026222 L11.919659,4.59948233 C11.919659,5.58923724 11.0908598,6.39496167 10.0782193,6.39496167 C9.06520051,6.39496167 8.23659049,5.58923724 8.23659049,4.59948233 L8.23659049,4.59948233 Z M12.6446218,10.0780302 C12.5296264,8.84069467 11.424687,7.86815124 10.0782193,7.86815124 C9.00770281,7.86815124 8.04083349,8.50705667 7.66123516,9.45652536 L7.6553719,9.47373684 C7.9661243,9.64055584 8.25380197,9.84198695 8.51273078,10.0780302 L12.6446218,10.0780302 Z M4.55352199,6.44092201 C4.55352199,7.02232973 5.04849402,7.49990113 5.65846146,7.49990113 C6.26842889,7.49990113 6.76340092,7.02232973 6.76340092,6.44092201 L6.76340092,5.24406187 C6.76340092,4.66284329 6.26842889,4.18527189 5.65846146,4.18527189 C5.04849402,4.18527189 4.55352199,4.66284329 4.55352199,5.24406187 L4.55352199,6.44092201 Z M3.81702178,6.44092201 L3.81702178,5.24406187 C3.81702178,4.25430696 4.64563181,3.44858253 5.65846146,3.44858253 C6.67129111,3.44858253 7.49990113,4.25430696 7.49990113,5.24406187 L7.49990113,6.44092201 C7.49990113,7.43086606 6.67129111,8.23640135 5.65846146,8.23640135 C4.64563181,8.23640135 3.81702178,7.43086606 3.81702178,6.44092201 L3.81702178,6.44092201 Z M8.97327984,12.6561592 C8.90991888,11.0218247 7.44826668,9.70978005 5.65846146,9.70978005 C3.86884537,9.70978005 2.40700403,11.0218247 2.34383221,12.6561592 L8.97327984,12.6561592 Z M13.3928485,10.2909986 C13.3928485,10.5786763 13.1454571,10.8145304 12.8401897,10.8145304 L9.12288736,10.8145304 C9.49113746,11.3844007 9.70996919,12.0518659 9.70996919,12.7598064 C9.70996919,13.1106559 9.40470177,13.3926594 9.03645166,13.3926594 L2.2863345,13.3926594 C1.91222114,13.3926594 1.60714286,13.1106559 1.60714286,12.7598064 C1.60714286,10.6764602 3.43137105,8.9730907 5.65846146,8.9730907 C6.11882138,8.9730907 6.56196981,9.04798903 6.97636939,9.18605918 C7.44826668,7.9890099 8.6623383,7.13165102 10.0782193,7.13165102 C11.9022584,7.13165102 13.3928485,8.553017 13.3928485,10.2909986 L13.3928485,10.2909986 Z" id="Fill-1"></path>
        </g>
    </g>
</svg>