<?xml version="1.0" encoding="UTF-8"?>
<svg width="25px" height="25px" viewBox="0 0 25 25" version="1.1" xmlns="http://www.w3.org/2000/svg" xmlns:xlink="http://www.w3.org/1999/xlink">
    <!-- Generator: Sketch 48.2 (47327) - http://www.bohemiancoding.com/sketch -->
    <title>Icon/Title_white</title>
    <desc>Created with Sketch.</desc>
    <defs></defs>
    <g id="Symbols" stroke="none" stroke-width="1" fill="none" fill-rule="evenodd">
        <g id="Icon/Title_white" fill="#616F8A">
            <path d="M21.6875145,12.2186703 L3.31248552,12.2186703 L3.31248552,18.1248552 C3.31248552,18.8529324 3.89712552,19.4373407 4.62497103,19.4373407 L20.375029,19.4373407 C21.0929103,19.4373407 21.6875145,18.8529324 21.6875145,18.1248552 L21.6875145,12.2186703 Z M3.31248552,11.5624276 L21.6875145,11.5624276 L21.6875145,8.93745655 L3.31248552,8.93745655 L3.31248552,11.5624276 Z M21.6875145,7.62497103 C21.6875145,6.89689379 21.0929103,6.31248552 20.375029,6.31248552 L4.62497103,6.31248552 C3.89712552,6.31248552 3.31248552,6.89689379 3.31248552,7.62497103 L3.31248552,8.28121379 L21.6875145,8.28121379 L21.6875145,7.62497103 Z M23,7.62497103 L23,18.1248552 C23,19.5708138 21.8207559,20.7498262 20.375029,20.7498262 L4.62497103,20.7498262 C3.17924414,20.7498262 2,19.5708138 2,18.1248552 L2,7.62497103 C2,6.17924414 3.17924414,5 4.62497103,5 L20.375029,5 C21.8207559,5 23,6.17924414 23,7.62497103 L23,7.62497103 Z" id="Fill-1"></path>
        </g>
    </g>
</svg>