<?xml version="1.0" encoding="UTF-8"?>
<svg width="20px" height="20px" viewBox="0 0 20 20" version="1.1" xmlns="http://www.w3.org/2000/svg" xmlns:xlink="http://www.w3.org/1999/xlink">
    <!-- Generator: sketchtool 49 (51002) - http://www.bohemiancoding.com/sketch -->
    <title>2EE18CDD-4F77-493B-BAE8-AEEF6835D09C</title>
    <desc>Created with sketchtool.</desc>
    <defs></defs>
    <g id="Profile" stroke="none" stroke-width="1" fill="none" fill-rule="evenodd">
        <g id="6G_Provider_Profile" transform="translate(-485.000000, -685.000000)" fill="#616F8A">
            <g id="Profile-Module_Left" transform="translate(441.000000, 101.000000)">
                <g id="Profile-Box">
                    <g id="About_Box" transform="translate(40.000000, 43.000000)">
                        <g id="Contact-Deails" transform="translate(0.000000, 506.000000)">
                            <g id="Icon/website_white" transform="translate(1.000000, 32.000000)">
                                <path d="M21.6500487,13.6392991 L18.5672346,13.6392991 C18.431743,17.0022307 17.2244978,19.871912 15.5042114,21.3120809 C18.8861726,20.2974164 21.388961,17.2724527 21.6500487,13.6392991 L21.6500487,13.6392991 Z M15.5042114,4.72958572 C17.2244978,6.16975469 18.431743,9.03943598 18.5672346,12.4023675 L21.6500487,12.4023675 C21.388961,8.769214 18.8861726,5.74425022 15.5042114,4.72958572 L15.5042114,4.72958572 Z M17.9491494,13.6392991 L13.6392991,13.6392991 L13.6392991,21.6020938 C15.9289547,21.0799184 17.7748372,17.6979571 17.9491494,13.6392991 L17.9491494,13.6392991 Z M17.9491494,12.4023675 C17.7748372,8.34370954 15.9289547,4.96174827 13.6392991,4.43957284 L13.6392991,12.4023675 L17.9491494,12.4023675 Z M8.09175609,13.6392991 C8.26606829,17.6979571 10.1119508,21.0707841 12.4023675,21.6020938 L12.4023675,13.6392991 L8.09175609,13.6392991 Z M8.09175609,12.4023675 L12.4023675,12.4023675 L12.4023675,4.43957284 C10.1119508,4.97088253 8.26606829,8.34370954 8.09175609,12.4023675 L8.09175609,12.4023675 Z M10.5366941,21.3120809 C8.81716889,19.871912 7.60916247,17.0022307 7.47367088,13.6392991 L4.39085676,13.6392991 C4.65194448,17.2724527 7.15473283,20.2974164 10.5366941,21.3120809 L10.5366941,21.3120809 Z M4.39085676,12.4023675 L7.47367088,12.4023675 C7.60916247,9.03943598 8.81716889,6.16975469 10.5366941,4.72958572 C7.15473283,5.74425022 4.65194448,8.769214 4.39085676,12.4023675 L4.39085676,12.4023675 Z M22.9159055,13.0212139 C22.9159055,18.4804591 18.4804591,22.9166667 13.0204527,22.9166667 C7.55131213,22.9166667 3.125,18.4804591 3.125,13.0212139 C3.125,7.56120758 7.55131213,3.125 13.0204527,3.125 C18.4804591,3.125 22.9159055,7.56120758 22.9159055,13.0212139 L22.9159055,13.0212139 Z" id="Fill-1"></path>
                            </g>
                        </g>
                    </g>
                </g>
            </g>
        </g>
    </g>
</svg>