<?xml version="1.0" encoding="UTF-8"?>
<svg width="24px" height="24px" viewBox="0 0 24 24" version="1.1" xmlns="http://www.w3.org/2000/svg" xmlns:xlink="http://www.w3.org/1999/xlink">
    <!-- Generator: Sketch 48.2 (47327) - http://www.bohemiancoding.com/sketch -->
    <title>Icon/Network_White</title>
    <desc>Created with Sketch.</desc>
    <defs></defs>
    <g id="Symbols" stroke="none" stroke-width="1" fill="none" fill-rule="evenodd">
        <g id="Icon/Network_White" fill="#616F8A">
            <path d="M14.8751143,7.57019515 C14.8751143,8.45788933 15.6727649,9.18757222 16.656412,9.18757222 C17.6394492,9.18757222 18.4377096,8.45788933 18.4377096,7.57019515 L18.4377096,5.74223264 C18.4377096,4.85453845 17.6394492,4.12485557 16.656412,4.12485557 C15.6727649,4.12485557 14.8751143,4.85453845 14.8751143,5.74223264 L14.8751143,7.57019515 Z M13.6874809,7.57019515 L13.6874809,5.74223264 C13.6874809,4.23029272 15.0233017,3 16.656412,3 C18.2889124,3 19.6250381,4.23029272 19.6250381,5.74223264 L19.6250381,7.57019515 C19.6250381,9.08184619 18.2889124,10.3124278 16.656412,10.3124278 C15.0233017,10.3124278 13.6874809,9.08184619 13.6874809,7.57019515 L13.6874809,7.57019515 Z M20.793767,15.9375722 C20.6083803,14.0477918 18.8270826,12.5624278 16.656412,12.5624278 C14.9306084,12.5624278 13.3718967,13.538227 12.7599377,14.988349 L12.7504855,15.014636 C13.2514564,15.2694184 13.715228,15.5770638 14.1326529,15.9375722 L20.793767,15.9375722 Z M7.74992377,10.3826229 C7.74992377,11.270606 8.54787925,12 9.53122141,12 C10.5145636,12 11.3125191,11.270606 11.3125191,10.3826229 L11.3125191,8.55466042 C11.3125191,7.66696623 10.5145636,6.93757222 9.53122141,6.93757222 C8.54787925,6.93757222 7.74992377,7.66696623 7.74992377,8.55466042 L7.74992377,10.3826229 Z M6.56259529,10.3826229 L6.56259529,8.55466042 C6.56259529,7.04300937 7.89841606,5.81242778 9.53122141,5.81242778 C11.1640268,5.81242778 12.4998475,7.04300937 12.4998475,8.55466042 L12.4998475,10.3826229 C12.4998475,11.8945628 11.1640268,13.1248556 9.53122141,13.1248556 C7.89841606,13.1248556 6.56259529,11.8945628 6.56259529,10.3826229 L6.56259529,10.3826229 Z M14.8751143,19.8751444 C14.7729687,17.3790281 12.4166065,15.3751444 9.53122141,15.3751444 C6.64614125,15.3751444 4.28947411,17.3790281 4.1876334,19.8751444 L14.8751143,19.8751444 Z M22,16.2628386 C22,16.7022082 21.6011747,17.0624278 21.1090463,17.0624278 L15.1163,17.0624278 C15.7099642,17.9327898 16.0627477,18.9522082 16.0627477,20.0334446 C16.0627477,20.5692964 15.5706193,21 14.976955,21 L4.09494006,21 C3.49182354,21 3,20.5692964 3,20.0334446 C3,16.8515535 5.94087911,14.25 9.53122141,14.25 C10.2733779,14.25 10.9877875,14.3643921 11.6558503,14.5752664 C12.4166065,12.747015 14.3738385,11.4375722 16.656412,11.4375722 C19.5969862,11.4375722 22,13.6084221 22,16.2628386 L22,16.2628386 Z" id="Fill-1"></path>
        </g>
    </g>
</svg>