<?xml version="1.0" encoding="UTF-8"?>
<svg width="24px" height="24px" viewBox="0 0 24 24" version="1.1" xmlns="http://www.w3.org/2000/svg" xmlns:xlink="http://www.w3.org/1999/xlink">
    <!-- Generator: Sketch 48.2 (47327) - http://www.bohemiancoding.com/sketch -->
    <title>Icon/News_White</title>
    <desc>Created with Sketch.</desc>
    <defs></defs>
    <g id="Symbols" stroke="none" stroke-width="1" fill="none" fill-rule="evenodd">
        <g id="Icon/News_White" fill="#616F8A">
            <path d="M8.57881848,10.5313091 L17.5050146,10.5313091 L17.5050146,5.65630909 L8.57881848,5.65630909 L8.57881848,10.5313091 Z M8.02095827,18.1484818 C8.02095827,17.977 8.14300372,17.8438091 8.29988838,17.8438091 L17.7840529,17.8438091 C17.9409376,17.8438091 18.062983,17.977 18.062983,18.1484818 C18.062983,18.3198455 17.9409376,18.4531545 17.7840529,18.4531545 L8.29988838,18.4531545 C8.14300372,18.4531545 8.02095827,18.3198455 8.02095827,18.1484818 L8.02095827,18.1484818 Z M8.02095827,15.7109818 C8.02095827,15.5395 8.14300372,15.4061909 8.29988838,15.4061909 L17.7840529,15.4061909 C17.9409376,15.4061909 18.062983,15.5395 18.062983,15.7109818 C18.062983,15.8823455 17.9409376,16.0156545 17.7840529,16.0156545 L8.29988838,16.0156545 C8.14300372,16.0156545 8.02095827,15.8823455 8.02095827,15.7109818 L8.02095827,15.7109818 Z M8.02095827,13.2734818 C8.02095827,13.102 8.14300372,12.9686909 8.29988838,12.9686909 L17.7840529,12.9686909 C17.9409376,12.9686909 18.062983,13.102 18.062983,13.2734818 C18.062983,13.4448455 17.9409376,13.5781545 17.7840529,13.5781545 L8.29988838,13.5781545 C8.14300372,13.5781545 8.02095827,13.4448455 8.02095827,13.2734818 L8.02095827,13.2734818 Z M8.02095827,11.1406545 L18.062983,11.1406545 L18.062983,5.04684545 L8.02095827,5.04684545 L8.02095827,11.1406545 Z M19.7365636,3.21880909 L6.34726945,3.21880909 L6.34726945,16.9296727 C6.34726945,17.1010364 6.2253322,17.2343455 6.06833935,17.2343455 C5.91145469,17.2343455 5.78940924,17.1010364 5.78940924,16.9296727 L5.78940924,5.65630909 L4.11582861,5.65630909 L4.11582861,17.8532636 C4.11582861,19.1862364 5.11826749,20.2811909 6.34726945,20.2811909 L17.5050146,20.2811909 C18.7341248,20.2811909 19.7365636,19.1862364 19.7365636,17.8438091 L19.7365636,3.21880909 Z M20.8523923,2 L20.8523923,17.8438091 C20.8523923,19.8623545 19.3531159,21.5 17.5050146,21.5 L6.34726945,21.5 C4.49927636,21.5 3,19.8623545 3,17.8532636 L3,4.4375 L5.23154903,4.4375 L5.23154903,2 L20.8523923,2 Z" id="Page-1"></path>
        </g>
    </g>
</svg>