<?xml version="1.0" encoding="UTF-8"?>
<svg width="16px" height="16px" viewBox="0 0 16 16" version="1.1" xmlns="http://www.w3.org/2000/svg" xmlns:xlink="http://www.w3.org/1999/xlink">
    <!-- Generator: Sketch 48.2 (47327) - http://www.bohemiancoding.com/sketch -->
    <title>Fill 1</title>
    <desc>Created with Sketch.</desc>
    <defs></defs>
    <g id="Icon/discussion_greyt" stroke="none" stroke-width="1" fill="none" fill-rule="evenodd" transform="translate(5.000000, 5.000000)">
        <path d="M15,6.69538462 C15,6.31261538 14.6873846,6 14.3126154,6 L7,6 L7,2 C7,1.44553846 6.55446154,1 6,1 C5.44553846,1 5,1.44553846 5,2 L5,2.05476923 C4.98461538,2.17969231 4.64861538,4.94523077 3.50030769,6.65661538 L3.50030769,14.016 C4.21846154,14.5544615 5.59384615,14.9532308 6.52369231,15 L12.3126154,15 C12.6873846,15 13,14.6873846 13,14.3046154 L13,13.0393846 L13.4221538,12.9686154 C13.7575385,12.9138462 14,12.6406154 14,12.3126154 L14,10.6092308 L14.4141538,10.5390769 C14.7575385,10.4843077 15,10.2030769 15,9.87507692 L15,9.27323077 C15,9.05476923 14.8830769,8.84369231 14.672,8.71076923 L14.0153846,8.28923077 L14.672,7.86707692 C14.8830769,7.73415385 15,7.52369231 15,7.29723077 L15,6.69538462 Z M1,15 L3,15 L3,7 L1,7 L1,15 Z M16,7.29723077 C16,7.65661538 15.8830769,8 15.664,8.28923077 C15.8830769,8.57046154 16,8.91384615 16,9.27323077 L16,9.87507692 C16,10.5544615 15.6018462,11.1409231 15,11.4061538 L15,12.3126154 C15,12.9766154 14.6018462,13.5624615 14,13.8283077 L14,14.3046154 C14,15.2424615 13.2424615,16 12.3126154,16 L6.49969231,16 C5.59384615,15.9532308 4.40615385,15.6486154 3.50030769,15.1796923 L3.50030769,16 L0,16 L0,6 L2.73415385,6 C3.64861538,4.56246154 3.96861538,2.23446154 4,1.96861538 C4.01538462,0.883076923 4.90646154,0 6,0 C7.10153846,0 8,0.898461538 8,2 L8,5 L14.3126154,5 C15.2424615,5 16,5.75815385 16,6.69538462 L16,7.29723077 Z" id="Fill-1" fill="#3F4444"></path>
    </g>
</svg>